<?xml version="1.0" encoding="UTF-8" standalone="no"?>
<!-- Created with Inkscape (http://www.inkscape.org/) -->

<svg
   xmlns:dc="http://purl.org/dc/elements/1.1/"
   xmlns:cc="http://creativecommons.org/ns#"
   xmlns:rdf="http://www.w3.org/1999/02/22-rdf-syntax-ns#"
   xmlns:svg="http://www.w3.org/2000/svg"
   xmlns="http://www.w3.org/2000/svg"
   xmlns:xlink="http://www.w3.org/1999/xlink"
   xmlns:sodipodi="http://sodipodi.sourceforge.net/DTD/sodipodi-0.dtd"
   xmlns:inkscape="http://www.inkscape.org/namespaces/inkscape"
   width="281.21429mm"
   height="73.70536mm"
   viewBox="0 0 281.21429 73.70536"
   version="1.1"
   id="svg1050"
   inkscape:version="0.92.5 (2060ec1f9f, 2020-04-08)"
   sodipodi:docname="logo.svg">
  <defs
     id="defs1044" />
  <sodipodi:namedview
     id="base"
     pagecolor="#ffffff"
     bordercolor="#666666"
     borderopacity="1.0"
     inkscape:pageopacity="0.0"
     inkscape:pageshadow="2"
     inkscape:zoom="0.7"
     inkscape:cx="245.49132"
     inkscape:cy="105.2836"
     inkscape:document-units="mm"
     inkscape:current-layer="layer1"
     showgrid="false"
     inkscape:window-width="1848"
     inkscape:window-height="1016"
     inkscape:window-x="72"
     inkscape:window-y="27"
     inkscape:window-maximized="1" />
  <metadata
     id="metadata1047">
    <rdf:RDF>
      <cc:Work
         rdf:about="">
        <dc:format>image/svg+xml</dc:format>
        <dc:type
           rdf:resource="http://purl.org/dc/dcmitype/StillImage" />
        <dc:title></dc:title>
      </cc:Work>
    </rdf:RDF>
  </metadata>
  <g
     inkscape:label="Layer 1"
     inkscape:groupmode="layer"
     id="layer1"
     transform="translate(21.544643,-67.946426)">
    <rect
       style="fill:#ffffff;fill-opacity:1;stroke:none;stroke-width:0.51800001;stroke-miterlimit:4;stroke-dasharray:none;stroke-dashoffset:0;stroke-opacity:1"
       id="rect1685"
       width="281.21429"
       height="73.70536"
       x="-21.544643"
       y="67.946426" />
    <g
       id="g1674"
       transform="matrix(0.85834536,0,0,0.85834536,14.730158,13.475998)">
      <g
         transform="matrix(1,0,-0.17015213,0.63501639,5.3042977,37.600175)"
         id="g1654">
        <rect
           style="fill:#d50000;fill-opacity:1;stroke:none;stroke-width:0.51800001;stroke-miterlimit:4;stroke-dasharray:none;stroke-dashoffset:0;stroke-opacity:1"
           id="rect1595"
           width="4.414011"
           height="14.978302"
           x="158.34114"
           y="85.131241" />
        <rect
           style="fill:#ff5252;fill-opacity:1;stroke:none;stroke-width:0.51800001;stroke-miterlimit:4;stroke-dasharray:none;stroke-dashoffset:0;stroke-opacity:1"
           id="rect1595-9"
           width="16.908163"
           height="15.056122"
           x="140.25439"
           y="85.202225" />
        <rect
           style="fill:#ffcdd2;fill-opacity:1;stroke:none;stroke-width:0.51800001;stroke-miterlimit:4;stroke-dasharray:none;stroke-dashoffset:0;stroke-opacity:1"
           id="rect1595-9-4"
           width="25.747293"
           height="14.978302"
           x="113.32851"
           y="85.131241" />
      </g>
      <use
         transform="translate(-12.072051,10.847815)"
         height="100%"
         width="100%"
         id="use1658"
         xlink:href="#g1654"
         y="0"
         x="0" />
      <use
         style="fill:#e53935"
         transform="translate(0.26293406,-21.525721)"
         height="100%"
         width="100%"
         id="use1660"
         xlink:href="#use1658"
         y="0"
         x="0" />
    </g>
    <g
       aria-label="ruch"
       style="font-style:normal;font-variant:normal;font-weight:normal;font-stretch:normal;font-size:25.39999962px;line-height:1.25;font-family:'DejaVu Sans Mono';-inkscape-font-specification:'DejaVu Sans Mono';letter-spacing:5.75204039px;word-spacing:0px;fill:#000000;fill-opacity:1;stroke:none;stroke-width:0.26458332"
       id="text1664"
       transform="translate(2.0830933,-3.7041668)">
      <path
         d="m 90.97567,121.73948 q -0.731739,-0.5705 -1.488282,-0.83095 -0.756543,-0.26045 -1.661914,-0.26045 -2.133203,0 -3.261816,1.33945 -1.128613,1.33945 -1.128613,3.86953 v 6.90811 h -2.294434 v -13.89063 h 2.294434 v 2.71612 q 0.570508,-1.47588 1.74873,-2.25723 1.190625,-0.79375 2.815332,-0.79375 0.84336,0 1.575098,0.21084 0.731738,0.21084 1.401465,0.65732 z"
         style="font-style:normal;font-variant:normal;font-weight:normal;font-stretch:normal;font-size:25.39999962px;font-family:'DejaVu Sans Mono';-inkscape-font-specification:'DejaVu Sans Mono';letter-spacing:5.75204039px;stroke-width:0.26458332"
         id="path1676"
         inkscape:connector-curvature="0" />
      <path
         d="m 100.11355,127.50657 v -8.60722 h 2.28203 v 8.60722 q 0,1.87276 0.65733,2.75332 0.66972,0.88057 2.05878,0.88057 1.61231,0 2.46807,-1.12861 0.85576,-1.14102 0.85576,-3.26182 v -7.85068 h 2.29444 v 13.86582 h -2.29444 v -2.0836 q -0.60771,1.20303 -1.66191,1.82315 -1.0418,0.62012 -2.44326,0.62012 -2.13321,0 -3.175,-1.38907 -1.0418,-1.40146 -1.0418,-4.2292 z"
         style="font-style:normal;font-variant:normal;font-weight:normal;font-stretch:normal;font-size:25.39999962px;font-family:'DejaVu Sans Mono';-inkscape-font-specification:'DejaVu Sans Mono';letter-spacing:5.75204039px;stroke-width:0.26458332"
         id="path1678"
         inkscape:connector-curvature="0" />
      <path
         d="m 131.89811,132.05823 q -0.91777,0.5333 -1.89756,0.79375 -0.96738,0.27286 -1.98437,0.27286 -3.22461,0 -5.04776,-1.93477 -1.81074,-1.93477 -1.81074,-5.35781 0,-3.42305 1.81074,-5.35782 1.82315,-1.93476 5.04776,-1.93476 1.00459,0 1.95957,0.26045 0.95498,0.26045 1.92236,0.80615 v 2.39365 q -0.90537,-0.80615 -1.82314,-1.16582 -0.90538,-0.35967 -2.05879,-0.35967 -2.14561,0 -3.29903,1.38907 -1.15341,1.38906 -1.15341,3.96875 0,2.56728 1.15341,3.96875 1.16582,1.38906 3.29903,1.38906 1.19062,0 2.1332,-0.35967 0.94258,-0.37207 1.74873,-1.14101 z"
         style="font-style:normal;font-variant:normal;font-weight:normal;font-stretch:normal;font-size:25.39999962px;font-family:'DejaVu Sans Mono';-inkscape-font-specification:'DejaVu Sans Mono';letter-spacing:5.75204039px;stroke-width:0.26458332"
         id="path1680"
         inkscape:connector-curvature="0" />
      <path
         d="m 152.81821,124.15794 v 8.60723 h -2.29443 v -8.60723 q 0,-1.87275 -0.65732,-2.75332 -0.65733,-0.88057 -2.05879,-0.88057 -1.5999,0 -2.46807,1.14102 -0.85576,1.12861 -0.85576,3.24941 v 7.85069 h -2.28203 v -19.29805 h 2.28203 v 7.49102 q 0.60771,-1.19063 1.64951,-1.79834 1.0418,-0.62012 2.46807,-0.62012 2.1208,0 3.1626,1.40146 1.05419,1.38907 1.05419,4.2168 z"
         style="font-style:normal;font-variant:normal;font-weight:normal;font-stretch:normal;font-size:25.39999962px;font-family:'DejaVu Sans Mono';-inkscape-font-specification:'DejaVu Sans Mono';letter-spacing:5.75204039px;stroke-width:0.26458332"
         id="path1682"
         inkscape:connector-curvature="0" />
    </g>
  </g>
</svg>
